<?xml version="1.0" encoding="UTF-8" standalone="no"?>
<!-- Generator: Adobe Illustrator 16.0.4, SVG Export Plug-In . SVG Version: 6.00 Build 0)  -->

<svg
   xmlns:dc="http://purl.org/dc/elements/1.1/"
   xmlns:cc="http://creativecommons.org/ns#"
   xmlns:rdf="http://www.w3.org/1999/02/22-rdf-syntax-ns#"
   xmlns:svg="http://www.w3.org/2000/svg"
   xmlns="http://www.w3.org/2000/svg"
   xmlns:sodipodi="http://sodipodi.sourceforge.net/DTD/sodipodi-0.dtd"
   xmlns:inkscape="http://www.inkscape.org/namespaces/inkscape"
   version="1.1"
   id="Layer_1"
   x="0px"
   y="0px"
   width="1154.929"
   height="572.797"
   viewBox="0 0 1154.929 572.797"
   enable-background="new 0 0 792 1224"
   xml:space="preserve"
   inkscape:version="0.48.4 r9939"
   sodipodi:docname="think-feel-act.svg"><metadata
   id="metadata95"><rdf:RDF><cc:Work
       rdf:about=""><dc:format>image/svg+xml</dc:format><dc:type
         rdf:resource="http://purl.org/dc/dcmitype/StillImage" /></cc:Work></rdf:RDF></metadata><defs
   id="defs93" /><sodipodi:namedview
   pagecolor="#ffffff"
   bordercolor="#666666"
   borderopacity="1"
   objecttolerance="10"
   gridtolerance="10"
   guidetolerance="10"
   inkscape:pageopacity="0"
   inkscape:pageshadow="2"
   inkscape:window-width="1600"
   inkscape:window-height="847"
   id="namedview91"
   showgrid="false"
   fit-margin-top="0"
   fit-margin-left="0"
   fit-margin-right="0"
   fit-margin-bottom="0"
   inkscape:zoom="0.54535033"
   inkscape:cx="125.74213"
   inkscape:cy="398.63347"
   inkscape:window-x="-8"
   inkscape:window-y="-8"
   inkscape:window-maximized="1"
   inkscape:current-layer="Layer_1" />
<path
   d="m 30.253999,81.204993 c -33.9199997,-62.073 21.951,-63.15 21.951,-63.15 60.079001,2.293 22.128,64.871 22.128,64.871 -3.94,10.385 -3.661,13.191 -3.661,13.191 -1.131,8.952997 -2.814,8.951997 -2.814,8.951997 -12.354,0.364 -27.603,-0.021 -27.603,-0.021 -6.645,-4.749 0.09,-1.936 -10.001,-23.842997 z"
   id="path3"
   inkscape:connector-curvature="0"
   style="fill:#ffffff;stroke:#000000;stroke-width:2" />
<rect
   x="40.916"
   y="105.85999"
   width="24.708"
   height="16.424"
   id="rect5"
   style="fill:#ffffff;stroke:#000000;stroke-width:2" />
<path
   d="m 44.672999,105.13499 c 9.424,-1.98 -2.627,-43.752997 -2.627,-43.752997 1.189,-17.117 -4.101,-13.937 -4.101,-13.937 -11.659,5.777 8.328,16.668 8.328,16.668 2.385,0.54 7.58,-2.474 7.58,-2.474 -8.723,-17.303 0.015,-17.193 0.015,-17.193 9.478,-0.096 -0.557,17.192 -0.557,17.192 6.436,3.693 5.387,3.452 7.035,2.485 0,0 20.005,-10.86 8.354,-16.655 0,0 -5.285,-3.188 -4.121,13.929 0,0 -10.897,40.670997 -2.197,43.749997"
   id="path7"
   inkscape:connector-curvature="0"
   style="fill:#ffffff;stroke:#000000;stroke-width:2" />
<rect
   x="48.819"
   y="123.22098"
   width="9.6870003"
   height="5.3800001"
   id="rect9"
   style="fill:#ffffff;stroke:#000000;stroke-width:2" />
<line
   x1="40.919006"
   y1="111.22998"
   x2="53.272003"
   y2="111.241"
   id="line11"
   style="fill:#ffffff;stroke:#000000;stroke-width:2" />
<line
   x1="40.914001"
   y1="117.22098"
   x2="53.268997"
   y2="117.23099"
   id="line13"
   style="fill:#ffffff;stroke:#000000;stroke-width:2" />
<line
   x1="7.5310059"
   y1="72.554993"
   x2="19.886002"
   y2="72.565002"
   id="line15"
   style="fill:#ffffff;stroke:#000000;stroke-width:2" />
<line
   x1="1"
   y1="39.733978"
   x2="12.951996"
   y2="42.856995"
   id="line17"
   style="fill:#ffffff;stroke:#000000;stroke-width:2" />
<line
   x1="24.25"
   y1="8.5440063"
   x2="30.350998"
   y2="19.28598"
   id="line19"
   style="fill:#ffffff;stroke:#000000;stroke-width:2" />
<line
   x1="52.776001"
   y1="1"
   x2="52.766998"
   y2="13.936005"
   id="line21"
   style="fill:#ffffff;stroke:#000000;stroke-width:2" />
<line
   x1="99.449997"
   y1="71.825989"
   x2="87.095993"
   y2="71.815979"
   id="line23"
   style="fill:#ffffff;stroke:#000000;stroke-width:2" />
<line
   x1="106.033"
   y1="39.015991"
   x2="94.074997"
   y2="42.118988"
   id="line25"
   style="fill:#ffffff;stroke:#000000;stroke-width:2" />
<line
   x1="82.834"
   y1="7.7879944"
   x2="76.716003"
   y2="18.519989"
   id="line27"
   style="fill:#ffffff;stroke:#000000;stroke-width:2" />
<g
   id="g29"
   transform="translate(-134.707,-356.62601)">
	<path
   d="m 287.275,640.18 c -1.953,-16.439 -1.241,-28.89 -1.241,-28.89 12.936,-6.795 16.02,1.006 16.02,1.006 -1.552,10.961 3.079,16.937 3.079,16.937 0.016,-17.929 9.998,-22.899 9.998,-22.899 -5.752,-13.617 -2.519,-13.948 -2.519,-13.948 2.531,-1.492 3.533,-1.108 3.533,-1.108 1.241,5.263 3.626,12.57 3.626,12.57 4.641,-0.494 7.169,-0.992 7.169,-0.992 0.426,-7.969 0.011,-13.559 0.011,-13.559 3.655,-3.268 4.635,0.006 4.635,0.006 -0.146,8.575 -0.011,13.559 -0.011,13.559 9.555,5.152 11.38,7.977 11.38,7.977 6.326,-3.813 8.015,-9.789 8.015,-9.789 3.375,1.995 2.527,6.31 2.527,6.31 -6.142,5.687 -5.768,8.298 -5.768,8.298 3.651,3.354 4.35,7.308 4.491,8.471 4.162,11.501 -6.013,6.196 -6.013,6.196 -12.863,-23.406 -24.201,-9.044 -24.343,-9.54 51.276,28.264 45.473,78.229 45.473,78.229 -13.795,27.715 -59.731,3.275 -59.731,3.275 -2.114,9.294 -1.277,14.44 -1.277,14.44 -4.499,-2.163 -15.6,-1.34 -15.6,-1.34 2.68,-11.787 -1.803,-31.878 -1.803,-31.878 -5.893,-10.132 -4.48,-18.263 -4.906,-18.263 -8.153,4.308 -12.646,1.149 -12.646,1.149 1.691,-4.646 0.008,-9.299 0.008,-9.299 6.184,0.005 13.914,-1.979 13.914,-1.979 3.339,-1.865 1.411,-4.431 1.411,-4.431 -6.462,-3.21 -13.913,-4.044 -14.331,-4.044 3.654,-4.482 1.125,-7.805 0.988,-8.967 5.055,2.826 11.697,4.241 13.911,2.503 z"
   id="path31"
   inkscape:connector-curvature="0"
   style="fill:#ffffff;stroke:#000000;stroke-width:2" />
	<polyline
   points="284.422,670.57 290.188,670.574 295.273,677.963    298.688,652.269 306.712,692.425 310.995,641.854 314.366,670.757 319.46,670.761 324.989,641.864 329.614,692.443 333.048,641.87    336.846,667.163 343.208,667.166 345.765,652.307 352.093,692.461 352.114,667.175 356.772,674.159 358.478,667.181    362.722,667.183  "
   id="polyline33"
   style="fill:#ffffff;stroke:#000000;stroke-width:2" />
</g>
<g
   id="g35"
   transform="translate(-134.707,-356.62601)">
	<polygon
   stroke-miterlimit="10"
   points="561.253,900.119 431.188,893.641 372.253,919.252 510.446,928.423 "
   id="polygon37"
   style="fill:#ffffff;stroke:#000000;stroke-width:2;stroke-miterlimit:10" />
	<polygon
   stroke-miterlimit="10"
   points="453.683,886.391 445.683,909.891 471.183,904.391 "
   id="polygon39"
   style="fill:#ffffff;stroke:#000000;stroke-miterlimit:10" />
	<polygon
   stroke-miterlimit="10"
   points="521.182,856.179 505.182,836.391 453.683,886.391 471.183,904.391 "
   id="polygon41"
   style="fill:#ffffff;stroke:#000000;stroke-width:2;stroke-miterlimit:10" />
	<line
   stroke-miterlimit="10"
   x1="448.332"
   y1="902.10602"
   x2="453.68301"
   y2="908.16498"
   id="line43"
   style="fill:#ffffff;stroke:#000000;stroke-miterlimit:10" />
	<polygon
   stroke-miterlimit="10"
   points="448.093,902.809 445.683,909.891 452.92,908.165 "
   id="polygon45"
   style="fill:#ffffff;stroke:#000000;stroke-miterlimit:10" />
	
		<line
   stroke-miterlimit="10"
   x1="450.13199"
   y1="896.81702"
   x2="404.784"
   y2="917.56"
   id="line47"
   style="fill:#ffffff;stroke:#000000;stroke-width:2;stroke-miterlimit:10" />
	
		<line
   stroke-miterlimit="10"
   x1="540.84601"
   y1="898.68103"
   x2="491.328"
   y2="921.09998"
   id="line49"
   style="fill:#ffffff;stroke:#000000;stroke-width:2;stroke-miterlimit:10" />
	
		<line
   stroke-miterlimit="10"
   x1="519.34698"
   y1="898.68103"
   x2="469.82901"
   y2="921.09998"
   id="line51"
   style="fill:#ffffff;stroke:#000000;stroke-width:2;stroke-miterlimit:10" />
	
		<line
   stroke-miterlimit="10"
   x1="447.05301"
   y1="905.86401"
   x2="423.40302"
   y2="916.57202"
   id="line53"
   style="fill:#ffffff;stroke:#000000;stroke-width:2;stroke-miterlimit:10" />
	
		<line
   stroke-miterlimit="10"
   x1="506.58701"
   y1="898.14099"
   x2="457.069"
   y2="920.56"
   id="line55"
   style="fill:#ffffff;stroke:#000000;stroke-width:2;stroke-miterlimit:10" />
	
		<line
   stroke-miterlimit="10"
   x1="493.828"
   y1="896.95599"
   x2="444.31201"
   y2="919.375"
   id="line57"
   style="fill:#ffffff;stroke:#000000;stroke-width:2;stroke-miterlimit:10" />
	
		<rect
   x="494.13"
   y="850.21997"
   transform="matrix(0.6419,0.7668,-0.7668,0.6419,835.3466,-82.671)"
   stroke-miterlimit="10"
   width="24.113001"
   height="5.638"
   id="rect59"
   style="fill:#ffffff;stroke:#000000;stroke-miterlimit:10" />
</g>
<rect
   x="114.45599"
   y="100.44998"
   width="425"
   height="33.542"
   id="rect61"
   style="fill:none" />
<text
   font-size="36"
   id="text63"
   style="font-size:36px;fill:#ed1c24;font-family:HelveticaNeue-CondensedBold"
   x="114.4561"
   y="126.15379">THINK.</text>

<rect
   x="296.84799"
   y="317.31998"
   width="231"
   height="31.028999"
   id="rect65"
   style="fill:none" />
<text
   font-size="36"
   id="text67"
   style="font-size:36px;fill:#ed1c24;font-family:HelveticaNeue-CondensedBold"
   x="296.84769"
   y="343.02438">FEEL.</text>

<g
   id="g69"
   transform="translate(-134.707,-356.62601)">
	<rect
   x="613.24402"
   y="889.68701"
   width="162"
   height="26.927"
   id="rect71"
   style="fill:none" />
	<text
   transform="translate(613.2441,915.3896)"
   font-size="36"
   id="text73"
   style="font-size:36px;fill:#ed1c24;font-family:HelveticaNeue-CondensedBold">ACT.</text>

</g>
<line
   x1="93.718002"
   y1="125.91098"
   x2="708.71802"
   y2="125.91098"
   id="line75"
   style="fill:none" />
<line
   x1="265.647"
   y1="344.95999"
   x2="730.85999"
   y2="344.95999"
   id="line77"
   style="fill:none" />
<line
   stroke-miterlimit="10"
   x1="86.074997"
   y1="128.60498"
   x2="724.85999"
   y2="128.60498"
   id="line79"
   style="fill:#ed1c24;stroke:#000000;stroke-width:5;stroke-miterlimit:10" />
<line
   stroke-miterlimit="10"
   x1="262.543"
   y1="344.95999"
   x2="904.43298"
   y2="344.95999"
   id="line81"
   style="fill:none;stroke:#000000;stroke-width:5;stroke-miterlimit:10" />
<line
   stroke-miterlimit="10"
   x1="443.293"
   y1="559.98694"
   x2="1094.85"
   y2="559.98694"
   id="line83"
   style="fill:none;stroke:#000000;stroke-width:5;stroke-miterlimit:10" />
<rect
   x="86.156998"
   y="126.10498"
   width="711.63599"
   height="5"
   id="rect85"
   style="fill:#ed1c24" />
<rect
   x="262.543"
   y="342.45999"
   width="711.63599"
   height="5"
   id="rect87"
   style="fill:#ed1c24" />
<rect
   x="443.293"
   y="557.48694"
   width="711.63599"
   height="5"
   id="rect89"
   style="fill:#ed1c24" />
</svg>